# Blender v2.77 (sub 0) OBJ File: 'SteamVR_floating_lowpoly_island.blend'
# www.blender.org
mtllib floating_lowpoly_island.mtl
o island.001_Icosphere.005
v -0.401866 -6.968620 1.008365
v -0.716451 -3.669865 3.304319
v -2.349330 -4.224667 2.119705
v -1.078351 -3.859280 -0.111370
v 0.972164 -3.754191 -1.188481
v 1.470241 -3.523129 1.191734
v -2.151862 -0.460082 3.679770
v -3.085478 -0.351843 0.941710
v -0.289220 -0.334187 -1.722058
v 2.778872 -0.382056 -0.031139
v 1.501757 -0.385691 3.952178
v -0.354011 -0.066941 1.131971
v -1.623498 -6.004821 1.364749
v -0.280252 -5.916883 2.109196
v -1.487140 -4.012794 2.630332
v 0.719510 -3.718386 2.702896
v 0.489885 -5.699737 1.448317
v -1.201229 -5.804939 0.175201
v -2.224769 -3.918011 0.460977
v 0.069337 -5.959178 -0.202419
v -0.539790 -3.942053 -0.943916
v 1.367239 -3.457226 0.067345
v 0.742293 -1.735101 4.181041
v 2.515835 -1.432212 2.882132
v -3.081650 -1.226506 3.503866
v -1.337824 -1.519076 4.625909
v -2.968209 -1.177964 -0.296083
v -3.753935 -1.492213 1.783283
v 0.459075 -1.078645 -1.943430
v -1.191894 -1.456481 -1.582321
v 3.280312 -1.744826 0.904289
v 2.255864 -0.982655 -1.203977
v -0.039409 -0.364788 4.599455
v -3.268165 -0.287685 2.379535
v -2.103863 -0.333792 -0.932746
v 1.357754 -0.299560 -1.607466
v 2.928129 -0.321437 2.018934
v -1.662452 -0.067958 2.748120
v 0.853327 -0.071707 2.817604
v -2.406958 -0.051737 0.566309
v -0.161644 -0.012130 -0.978429
v 1.605715 -0.051756 0.344926
vt 0.9808 0.0418
vt 0.9195 0.1008
vt 0.8901 0.0200
vt 0.7961 0.1789
vt 0.8725 0.2337
vt 0.7117 0.7069
vt 0.7473 0.6403
vt 0.7804 0.6854
vt 0.7751 0.7375
vt 0.7180 0.7838
vt 0.7594 0.3273
vt 0.7761 0.0568
vt 0.7910 0.1148
vt 0.5971 0.1449
vt 0.8602 0.6842
vt 0.8529 0.6290
vt 0.9858 0.6107
vt 0.8618 0.7905
vt 0.8636 0.7259
vt 0.9867 0.7965
vt 0.7879 0.8696
vt 0.8305 0.8409
vt 0.8664 0.9596
vt 0.6601 0.2515
vt 0.8080 0.5670
vt 0.9003 0.4402
vt 0.9419 0.5160
vt 0.9801 0.7159
vt 0.9576 0.8867
vt 0.9646 0.2722
vt 0.9860 0.4195
vt 0.8619 0.4054
vt 0.1043 0.6650
vt 0.1719 0.4521
vt 0.2059 0.6867
vt 0.2569 0.8912
vt 0.1344 0.8299
vt 0.3192 0.8517
vt 0.5669 0.8392
vt 0.4317 0.9068
vt 0.5240 0.7885
vt 0.6418 0.5751
vt 0.6371 0.7376
vt 0.5444 0.6160
vt 0.3194 0.4043
vt 0.5406 0.4197
vt 0.3506 0.5157
vt 0.3874 0.6898
vt 0.4470 0.3014
vt 0.6663 0.2779
vt 0.7264 0.4491
vt 0.7116 0.6743
vt 0.6621 0.8376
vt 0.5556 0.9665
vt 0.3521 0.9935
vt 0.1347 0.9739
vt 0.0292 0.9295
vt 0.0140 0.7409
vt 0.0168 0.5340
vt 0.0173 0.3601
vt 0.2281 0.2928
vt 0.9669 0.1336
vn -0.3285 -0.6645 0.6712
vn 0.3449 -0.3877 0.8548
vn -0.6414 -0.6862 -0.3430
vn -0.2836 -0.6794 -0.6768
vn 0.8317 -0.5405 -0.1269
vn 0.3003 -0.5722 0.7631
vn -0.3650 -0.4623 0.8081
vn -0.4053 -0.3440 -0.8470
vn -0.1175 -0.2905 -0.9496
vn 0.6884 -0.7177 -0.1051
vn 0.1332 -0.4906 0.8611
vn -0.8386 -0.3835 0.3869
vn -0.5692 -0.4487 -0.6890
vn 0.3825 -0.1822 -0.9058
vn 0.6816 -0.6349 0.3638
vn -0.1741 0.9370 0.3029
vn -0.4468 0.8894 -0.0965
vn -0.1603 0.9155 -0.3690
vn 0.2229 0.9631 -0.1506
vn 0.1803 0.9696 0.1653
vn -0.0051 1.0000 0.0065
vn 0.1383 0.9891 0.0501
vn 0.2567 0.9653 -0.0472
vn 0.0028 0.9997 0.0262
vn 0.1274 0.9818 -0.1408
vn 0.0085 0.9171 -0.3986
vn 0.0002 0.9997 0.0260
vn -0.1645 0.9628 -0.2144
vn -0.5064 0.8231 -0.2572
vn 0.0059 1.0000 0.0054
vn -0.1484 0.9872 0.0580
vn -0.1951 0.9364 0.2916
vn 0.0014 1.0000 0.0018
vn -0.0030 0.9870 0.1609
vn 0.1018 0.9722 0.2109
vn 0.7911 0.1642 0.5892
vn 0.9280 -0.0585 0.3679
vn 0.9518 0.2966 -0.0781
vn 0.6469 0.5221 -0.5558
vn 0.3822 -0.0428 -0.9231
vn 0.0583 0.3379 -0.9394
vn -0.3906 0.2023 -0.8981
vn -0.5874 -0.0089 -0.8093
vn -0.7740 0.4904 -0.4006
vn -0.8947 0.4265 -0.1327
vn -0.9213 0.2094 0.3277
vn -0.5821 0.5740 0.5759
vn -0.3750 0.4405 0.8157
vn 0.1867 -0.1879 0.9643
vn 0.3858 -0.0610 0.9206
vn 0.9045 0.0414 -0.4245
vn 0.6851 -0.5122 -0.5180
vn 0.8917 -0.4141 -0.1826
vn -0.2266 0.0613 -0.9721
vn -0.1432 -0.2813 -0.9489
vn -0.8056 -0.3366 -0.4876
vn -0.9033 0.3124 -0.2941
vn -0.8623 -0.3381 -0.3769
vn -0.8714 -0.4666 -0.1517
vn -0.4580 0.3701 0.8083
vn -0.5237 -0.5129 0.6802
vn -0.3891 -0.5613 0.7305
vn 0.6008 -0.2072 0.7721
vn 0.5665 -0.4966 0.6576
vn 0.7413 -0.6052 0.2901
vn 0.9017 -0.4188 -0.1072
vn 0.8836 -0.4416 -0.1557
vn 0.8817 -0.4387 -0.1736
vn -0.1033 -0.3705 -0.9231
vn -0.3052 -0.4084 -0.8602
vn -0.8405 -0.0266 -0.5411
vn -0.4400 -0.1036 -0.8920
vn -0.8403 -0.4004 -0.3656
vn -0.9362 -0.3263 -0.1306
vn 0.8585 -0.3416 0.3824
vn 0.6495 -0.4591 0.6061
vn 0.6096 -0.6057 0.5114
vn -0.3548 -0.4839 0.7999
vn -0.4039 -0.4707 0.7844
vn -0.4423 -0.4866 0.7534
usemtl TexIsland
s off
f 1/1/1 14/2/1 13/3/1
f 2/4/2 14/2/2 16/5/2
f 1/6/3 13/7/3 18/8/3
f 1/6/4 18/8/4 20/9/4
f 1/6/5 20/9/5 17/10/5
f 2/4/6 16/5/6 23/11/6
f 3/12/7 15/13/7 25/14/7
f 4/15/8 19/16/8 27/17/8
f 5/18/9 21/19/9 29/20/9
f 6/21/10 22/22/10 31/23/10
f 2/4/11 23/11/11 26/24/11
f 3/25/12 25/26/12 28/27/12
f 4/15/13 27/17/13 30/28/13
f 5/18/14 29/20/14 32/29/14
f 6/30/15 31/31/15 24/32/15
f 7/33/16 33/34/16 38/35/16
f 8/36/17 34/37/17 40/38/17
f 9/39/18 35/40/18 41/41/18
f 10/42/19 36/43/19 42/44/19
f 11/45/20 37/46/20 39/47/20
f 39/47/21 42/44/21 12/48/21
f 39/47/22 37/46/22 42/44/22
f 37/46/23 10/42/23 42/44/23
f 42/44/24 41/41/24 12/48/24
f 42/44/25 36/43/25 41/41/25
f 36/43/26 9/39/26 41/41/26
f 41/41/27 40/38/27 12/48/27
f 41/41/28 35/40/28 40/38/28
f 35/40/29 8/36/29 40/38/29
f 40/38/30 38/35/30 12/48/30
f 40/38/31 34/37/31 38/35/31
f 34/37/32 7/33/32 38/35/32
f 38/35/33 39/47/33 12/48/33
f 38/35/34 33/34/34 39/47/34
f 33/34/35 11/45/35 39/47/35
f 24/49/36 37/46/36 11/45/36
f 24/49/37 31/50/37 37/46/37
f 31/51/38 10/42/38 37/46/38
f 32/52/39 36/43/39 10/42/39
f 32/52/40 29/53/40 36/43/40
f 29/53/41 9/39/41 36/43/41
f 30/54/42 35/40/42 9/39/42
f 30/54/43 27/55/43 35/40/43
f 27/55/44 8/36/44 35/40/44
f 28/56/45 34/37/45 8/36/45
f 28/57/46 25/58/46 34/37/46
f 25/58/47 7/33/47 34/37/47
f 26/59/48 33/34/48 7/33/48
f 26/60/49 23/61/49 33/34/49
f 23/61/50 11/45/50 33/34/50
f 31/51/51 32/52/51 10/42/51
f 31/23/52 22/22/52 32/29/52
f 22/22/53 5/18/53 32/29/53
f 29/53/54 30/54/54 9/39/54
f 29/20/55 21/19/55 30/28/55
f 21/19/56 4/15/56 30/28/56
f 27/55/57 28/56/57 8/36/57
f 27/17/58 19/16/58 28/27/58
f 19/16/59 3/25/59 28/27/59
f 25/58/60 26/59/60 7/33/60
f 25/14/61 15/13/61 26/24/61
f 15/13/62 2/4/62 26/24/62
f 23/61/63 24/49/63 11/45/63
f 23/11/64 16/5/64 24/32/64
f 16/5/65 6/30/65 24/32/65
f 17/10/66 22/22/66 6/21/66
f 17/10/67 20/9/67 22/22/67
f 20/9/68 5/18/68 22/22/68
f 20/9/69 21/19/69 5/18/69
f 20/9/70 18/8/70 21/19/70
f 18/8/71 4/15/71 21/19/71
f 18/8/72 19/16/72 4/15/72
f 18/8/73 13/7/73 19/16/73
f 13/7/74 3/25/74 19/16/74
f 16/5/75 17/62/75 6/30/75
f 16/5/76 14/2/76 17/62/76
f 14/2/77 1/1/77 17/62/77
f 13/3/78 15/13/78 3/12/78
f 13/3/79 14/2/79 15/13/79
f 14/2/80 2/4/80 15/13/80
